<svg width="566" height="386" viewBox="0 0 566 386" fill="none" xmlns="http://www.w3.org/2000/svg">
<g filter="url(#filter0_d_675_230)">
<rect x="26" y="26" width="504" height="324" rx="5" fill="white"/>
</g>
<path d="M140.322 54.422H138.936C138.385 54.422 137.979 54.282 137.718 54.002C137.466 53.722 137.34 53.344 137.34 52.868V52.126C136.789 52.0607 136.295 51.902 135.856 51.65C135.417 51.398 135.044 51.062 134.736 50.642C134.428 50.222 134.19 49.718 134.022 49.13C133.854 48.5327 133.77 47.8607 133.77 47.114C133.77 46.2927 133.868 45.5693 134.064 44.944C134.269 44.3093 134.554 43.782 134.918 43.362C135.291 42.9327 135.735 42.6107 136.248 42.396C136.771 42.172 137.349 42.06 137.984 42.06C138.619 42.06 139.193 42.172 139.706 42.396C140.229 42.6107 140.672 42.9327 141.036 43.362C141.409 43.782 141.694 44.3093 141.89 44.944C142.095 45.5693 142.198 46.2927 142.198 47.114C142.198 48.57 141.895 49.7227 141.288 50.572C140.681 51.412 139.86 51.9207 138.824 52.098V53.106H140.322V54.422ZM137.984 50.754C138.357 50.754 138.698 50.6887 139.006 50.558C139.323 50.4273 139.589 50.2407 139.804 49.998C140.028 49.746 140.201 49.4427 140.322 49.088C140.443 48.7333 140.504 48.332 140.504 47.884V46.344C140.504 45.896 140.443 45.4947 140.322 45.14C140.201 44.7853 140.028 44.4867 139.804 44.244C139.589 43.992 139.323 43.8007 139.006 43.67C138.698 43.5393 138.357 43.474 137.984 43.474C137.601 43.474 137.256 43.5393 136.948 43.67C136.64 43.8007 136.374 43.992 136.15 44.244C135.935 44.4867 135.767 44.7853 135.646 45.14C135.525 45.4947 135.464 45.896 135.464 46.344V47.884C135.464 48.332 135.525 48.7333 135.646 49.088C135.767 49.4427 135.935 49.746 136.15 49.998C136.374 50.2407 136.64 50.4273 136.948 50.558C137.256 50.6887 137.601 50.754 137.984 50.754ZM147.349 50.796H147.293C147.227 50.9733 147.139 51.146 147.027 51.314C146.924 51.482 146.789 51.6313 146.621 51.762C146.462 51.8833 146.266 51.9813 146.033 52.056C145.809 52.1307 145.547 52.168 145.249 52.168C144.493 52.168 143.905 51.9253 143.485 51.44C143.074 50.9547 142.869 50.2593 142.869 49.354V44.72H144.395V49.158C144.395 50.2873 144.861 50.852 145.795 50.852C145.991 50.852 146.182 50.8287 146.369 50.782C146.555 50.726 146.719 50.6467 146.859 50.544C147.008 50.4413 147.125 50.3107 147.209 50.152C147.302 49.9933 147.349 49.8067 147.349 49.592V44.72H148.875V52H147.349V50.796ZM150.71 43.418C150.393 43.418 150.159 43.3433 150.01 43.194C149.87 43.0447 149.8 42.8533 149.8 42.62V42.382C149.8 42.1487 149.87 41.9573 150.01 41.808C150.159 41.6587 150.393 41.584 150.71 41.584C151.027 41.584 151.256 41.6587 151.396 41.808C151.536 41.9573 151.606 42.1487 151.606 42.382V42.62C151.606 42.8533 151.536 43.0447 151.396 43.194C151.256 43.3433 151.027 43.418 150.71 43.418ZM149.94 44.72H151.466V52H149.94V44.72ZM155.339 52.168C154.816 52.168 154.35 52.0793 153.939 51.902C153.528 51.7247 153.183 51.4727 152.903 51.146C152.623 50.81 152.408 50.4087 152.259 49.942C152.11 49.466 152.035 48.9387 152.035 48.36C152.035 47.7813 152.11 47.2587 152.259 46.792C152.408 46.316 152.623 45.9147 152.903 45.588C153.183 45.252 153.528 44.9953 153.939 44.818C154.35 44.6407 154.816 44.552 155.339 44.552C156.067 44.552 156.664 44.7153 157.131 45.042C157.598 45.3687 157.938 45.8027 158.153 46.344L156.893 46.932C156.79 46.596 156.608 46.33 156.347 46.134C156.095 45.9287 155.759 45.826 155.339 45.826C154.779 45.826 154.354 46.0033 154.065 46.358C153.785 46.7033 153.645 47.156 153.645 47.716V49.018C153.645 49.578 153.785 50.0353 154.065 50.39C154.354 50.7353 154.779 50.908 155.339 50.908C155.787 50.908 156.142 50.8007 156.403 50.586C156.674 50.362 156.888 50.068 157.047 49.704L158.209 50.32C157.966 50.9173 157.602 51.3747 157.117 51.692C156.632 52.0093 156.039 52.168 155.339 52.168ZM158.542 41.64H160.068V47.996H160.138L161.146 46.694L162.896 44.72H164.674L162.126 47.534L164.982 52H163.162L161.076 48.528L160.068 49.62V52H158.542V41.64ZM165.19 52V42.228H171.294V43.628H166.772V46.344H170.79V47.744H166.772V52H165.19ZM173.496 52C172.974 52 172.582 51.8693 172.32 51.608C172.068 51.3373 171.942 50.964 171.942 50.488V41.64H173.468V50.754H174.476V52H173.496ZM177.67 52.168C177.167 52.168 176.705 52.0793 176.285 51.902C175.874 51.7247 175.524 51.4727 175.234 51.146C174.945 50.81 174.721 50.4087 174.562 49.942C174.404 49.466 174.324 48.9387 174.324 48.36C174.324 47.7813 174.404 47.2587 174.562 46.792C174.721 46.316 174.945 45.9147 175.234 45.588C175.524 45.252 175.874 44.9953 176.285 44.818C176.705 44.6407 177.167 44.552 177.67 44.552C178.175 44.552 178.632 44.6407 179.043 44.818C179.463 44.9953 179.817 45.252 180.107 45.588C180.396 45.9147 180.62 46.316 180.778 46.792C180.937 47.2587 181.017 47.7813 181.017 48.36C181.017 48.9387 180.937 49.466 180.778 49.942C180.62 50.4087 180.396 50.81 180.107 51.146C179.817 51.4727 179.463 51.7247 179.043 51.902C178.632 52.0793 178.175 52.168 177.67 52.168ZM177.67 50.908C178.193 50.908 178.613 50.7493 178.93 50.432C179.248 50.1053 179.407 49.62 179.407 48.976V47.744C179.407 47.1 179.248 46.6193 178.93 46.302C178.613 45.9753 178.193 45.812 177.67 45.812C177.148 45.812 176.728 45.9753 176.41 46.302C176.093 46.6193 175.934 47.1 175.934 47.744V48.976C175.934 49.62 176.093 50.1053 176.41 50.432C176.728 50.7493 177.148 50.908 177.67 50.908ZM180.773 44.72H182.257L182.999 47.772L183.657 50.53H183.699L184.455 47.772L185.337 44.72H186.709L187.605 47.772L188.375 50.53H188.417L189.061 47.772L189.817 44.72H191.231L189.271 52H187.549L186.597 48.682L186.009 46.638H185.981L185.407 48.682L184.441 52H182.761L180.773 44.72Z" fill="#CBD5E1"/>
<rect x="26" y="67" width="504" height="1" fill="#E2E8F0"/>
<circle cx="47" cy="47" r="6" fill="#FF5F56"/>
<circle cx="67" cy="47" r="6" fill="#FFBD2E"/>
<circle cx="87" cy="47" r="6" fill="#27C93F"/>
<rect x="110" y="26" width="1" height="42" fill="#E2E8F0"/>
<rect x="274" y="26" width="1" height="42" fill="#E2E8F0"/>
<rect x="50" y="92" width="344" height="70" rx="4" fill="#E2E8F0"/>
<rect x="50" y="180" width="344" height="87" rx="4" fill="#E2E8F0"/>
<path d="M50 286C50 283.791 51.7909 282 54 282H390C392.209 282 394 283.791 394 286V350H50V286Z" fill="#E2E8F0"/>
<path d="M374.006 105.728L374.293 102.767C374.408 101.576 375.518 100.769 376.641 101.059C378.33 101.496 379.516 103.065 379.516 104.864V108.658C379.516 109.502 379.516 109.923 379.699 110.234C379.802 110.409 379.945 110.557 380.115 110.664C380.415 110.853 380.823 110.853 381.64 110.853H382.135C384.263 110.853 385.328 110.853 385.983 111.341C386.473 111.706 386.819 112.242 386.956 112.85C387.14 113.663 386.731 114.678 385.912 116.709L385.504 117.721C385.269 118.306 385.172 118.94 385.223 119.572C385.513 123.163 382.663 126.191 379.181 125.991L366.151 125.243C364.728 125.161 364.016 125.12 363.373 124.551C362.73 123.982 362.609 123.396 362.367 122.225C362.161 121.226 362 120.002 362 118.611C362 117.069 362.198 115.731 362.436 114.679C362.789 113.118 364.28 112.279 365.819 112.478C369.899 113.005 373.597 109.955 374.006 105.728Z" fill="#10B981" stroke="#065F46" stroke-width="1.5" stroke-linecap="round" stroke-linejoin="round"/>
<path d="M374.006 295.728L374.293 292.767C374.408 291.576 375.518 290.769 376.641 291.059C378.33 291.496 379.516 293.065 379.516 294.864V298.658C379.516 299.502 379.516 299.923 379.699 300.234C379.802 300.409 379.945 300.557 380.115 300.664C380.415 300.853 380.823 300.853 381.64 300.853H382.135C384.263 300.853 385.328 300.853 385.983 301.341C386.473 301.706 386.819 302.242 386.956 302.85C387.14 303.663 386.731 304.678 385.912 306.709L385.504 307.721C385.269 308.306 385.172 308.94 385.223 309.572C385.513 313.163 382.663 316.191 379.181 315.991L366.151 315.243C364.728 315.161 364.016 315.12 363.373 314.551C362.73 313.982 362.609 313.396 362.367 312.225C362.161 311.226 362 310.002 362 308.611C362 307.069 362.198 305.731 362.436 304.679C362.789 303.118 364.28 302.279 365.819 302.478C369.899 303.005 373.597 299.955 374.006 295.728Z" fill="#10B981" stroke="#065F46" stroke-width="1.5" stroke-linecap="round" stroke-linejoin="round"/>
<path d="M374.994 208.272L374.707 211.233C374.592 212.424 373.482 213.231 372.359 212.941C370.67 212.504 369.484 210.935 369.484 209.136V205.342C369.484 204.498 369.484 204.077 369.301 203.766C369.198 203.591 369.055 203.443 368.885 203.336C368.585 203.147 368.177 203.147 367.36 203.147H366.865C364.737 203.147 363.672 203.147 363.017 202.659C362.527 202.294 362.181 201.758 362.044 201.15C361.86 200.337 362.269 199.322 363.088 197.291L363.496 196.279C363.731 195.694 363.828 195.06 363.777 194.428C363.487 190.837 366.337 187.809 369.819 188.009L382.849 188.757C384.272 188.839 384.984 188.88 385.627 189.449C386.27 190.018 386.391 190.604 386.633 191.775C386.839 192.774 387 193.998 387 195.389C387 196.931 386.802 198.269 386.564 199.321C386.211 200.882 384.72 201.721 383.181 201.522C379.101 200.995 375.403 204.045 374.994 208.272Z" fill="#EF4444" stroke="#B91C1C" stroke-width="1.5" stroke-linecap="round" stroke-linejoin="round"/>
<path d="M368.253 112.875L368.082 113.446C366.973 117.141 367.033 121.089 368.253 124.75" stroke="#10B981" stroke-width="1.5" stroke-linecap="round" stroke-linejoin="round"/>
<path d="M366.894 231.44C366.607 231.112 366.243 230.785 365.833 230.498C365.424 230.211 364.991 229.98 364.546 229.808C365.239 228.462 365.438 227.013 365.248 225.621C364.966 223.986 364.056 222.456 362.589 221.429C362.522 221.382 362.455 221.335 362.389 221.294C362.389 221.294 362.374 221.284 362.363 221.276C361.544 220.703 360.648 220.319 359.728 220.119C359.974 219.276 359.997 218.443 359.858 217.635C359.538 216.024 358.611 214.526 357.155 213.506C357.021 213.413 356.884 213.322 356.746 213.242L356.765 213.255C359.017 212.535 361.091 211.079 362.572 208.965C366.172 203.823 364.923 196.739 359.781 193.138C354.639 189.538 347.555 190.787 343.955 195.929C341.835 198.956 341.397 202.656 342.444 205.924L335.52 215.859C333.419 214.471 330.988 213.979 328.674 214.289C324.945 215.113 322.442 218.687 319.314 223.155L317.436 225.836C314.617 230.116 314.04 235.228 315.45 239.783L315.855 242.042C317.161 250.004 320.415 254.391 330.245 261.274C340.968 268.782 350.155 266.281 359.15 253.435L365.694 244.09C367.702 241.223 370.405 235.619 366.894 231.44ZM362.182 241.181L355.429 250.824C346.643 263.372 340.041 262.578 332.855 257.546C323.174 250.768 321.212 247.23 320.312 241.384L319.936 239.067C318.71 235.612 319.052 231.707 321.149 228.458C321.84 227.472 322.466 226.578 323.066 225.722C323.407 224.973 323.867 224.157 324.412 223.379C325.814 221.376 327.611 219.809 329.624 218.717C330.661 218.71 331.823 218.991 332.849 219.643L331.035 222.257L331.609 221.438L326.432 226.137C326.337 226.192 326.247 226.274 326.177 226.374C325.908 226.758 326.001 227.283 326.384 227.552C326.664 227.747 327.023 227.749 327.304 227.585L334.185 225.683C334.233 225.639 334.279 225.588 334.321 225.529C334.362 225.469 334.394 225.408 334.422 225.345L349.046 204.46C349.077 204.415 349.11 204.36 349.144 204.312C349.811 203.359 350.735 202.697 351.757 202.347C352.346 202.226 353 202.34 353.543 202.72C353.58 202.746 353.618 202.773 353.652 202.802C354.434 203.35 354.62 204.423 354.073 205.205L354.044 205.246L343.957 219.652C343.237 220.68 343.487 222.098 344.515 222.818C345.543 223.537 346.961 223.287 347.68 222.259L351.122 217.344C351.813 216.436 353.106 216.231 354.048 216.891C354.089 216.919 354.126 216.945 354.164 216.978C354.263 217.019 354.375 217.081 354.479 217.154C355.343 217.759 355.553 218.949 354.948 219.813C354.922 219.85 354.896 219.887 354.869 219.918L351.404 224.867C350.684 225.894 350.934 227.312 351.962 228.032C352.989 228.751 354.408 228.501 355.127 227.474L356.796 225.091C357.491 224.368 358.613 224.238 359.451 224.825C359.522 224.874 359.59 224.928 359.653 224.988C359.707 225.015 359.773 225.055 359.836 225.1C360.253 225.392 360.521 225.818 360.625 226.279C360.661 227.02 360.454 227.791 359.987 228.457L359.943 228.521L357.808 231.57C357.162 232.516 357.33 233.782 358.161 234.537C358.231 234.603 358.311 234.664 358.396 234.724C359.294 235.352 360.475 235.258 361.26 234.565C361.649 234.215 362.097 234.019 362.567 233.965C362.729 233.995 362.894 234.061 363.043 234.165C363.192 234.27 363.31 234.402 363.398 234.547C364.163 236.465 363.979 238.694 362.72 240.492C362.571 240.704 362.414 240.905 362.242 241.095L362.264 241.072L362.182 241.181Z" fill="#444444"/>
<defs>
<filter id="filter0_d_675_230" x="0" y="0" width="566" height="386" filterUnits="userSpaceOnUse" color-interpolation-filters="sRGB">
<feFlood flood-opacity="0" result="BackgroundImageFix"/>
<feColorMatrix in="SourceAlpha" type="matrix" values="0 0 0 0 0 0 0 0 0 0 0 0 0 0 0 0 0 0 127 0" result="hardAlpha"/>
<feOffset dx="5" dy="5"/>
<feGaussianBlur stdDeviation="15.5"/>
<feComposite in2="hardAlpha" operator="out"/>
<feColorMatrix type="matrix" values="0 0 0 0 0 0 0 0 0 0 0 0 0 0 0 0 0 0 0.1 0"/>
<feBlend mode="normal" in2="BackgroundImageFix" result="effect1_dropShadow_675_230"/>
<feBlend mode="normal" in="SourceGraphic" in2="effect1_dropShadow_675_230" result="shape"/>
</filter>
</defs>
</svg>
