<?xml version="1.0" standalone="no"?>
<!DOCTYPE svg PUBLIC "-//W3C//DTD SVG 20010904//EN"
 "http://www.w3.org/TR/2001/REC-SVG-20010904/DTD/svg10.dtd">
<svg version="1.0" xmlns="http://www.w3.org/2000/svg"
 width="215.000000pt" height="314.000000pt" viewBox="0 0 215.000000 314.000000"
 preserveAspectRatio="xMidYMid meet">

<g transform="translate(0.000000,314.000000) scale(0.100000,-0.100000)"
fill="#000000" stroke="none">
<path d="M1284 2851 c-104 -59 -205 -118 -224 -130 -19 -11 -38 -21 -42 -21
-3 0 -21 26 -39 58 -39 70 -58 92 -77 92 -19 0 -344 -187 -359 -207 -13 -17
-10 -28 35 -106 19 -31 32 -62 30 -67 -2 -6 -102 -68 -223 -139 -187 -109
-220 -132 -223 -153 -2 -17 17 -59 55 -124 52 -87 62 -99 88 -102 24 -2 165
76 670 368 352 204 643 376 647 383 15 24 7 48 -43 137 -45 80 -79 120 -100
120 -3 0 -91 -49 -195 -109z m196 -53 c11 -18 20 -37 20 -43 0 -5 -24 -23 -53
-39 -28 -16 -164 -95 -302 -174 -565 -328 -800 -463 -808 -465 -10 -2 -54 70
-47 76 6 5 1164 676 1168 677 1 0 11 -15 22 -32z m-566 -99 l27 -47 -118 -67
c-65 -38 -121 -70 -125 -72 -7 -4 -52 74 -53 90 0 7 238 149 241 144 1 -1 13
-23 28 -48z"/>
<path d="M431 1651 c-14 -9 -9 -64 79 -871 10 -96 26 -249 35 -340 9 -91 21
-175 26 -187 l9 -23 532 0 c293 0 538 4 545 8 7 4 18 67 27 152 8 80 31 294
51 475 19 182 42 395 50 475 9 80 19 179 24 220 5 47 5 80 -2 88 -7 9 -156 12
-686 12 -372 0 -682 -4 -690 -9z m1265 -128 c-3 -16 -8 -57 -11 -93 -3 -36
-12 -123 -20 -195 -8 -71 -24 -220 -35 -330 -12 -110 -30 -279 -41 -375 -10
-96 -19 -178 -19 -182 0 -5 -203 -8 -450 -8 -352 0 -452 3 -455 13 -2 6 -15
125 -30 262 -14 138 -41 398 -60 578 -19 181 -35 335 -35 343 0 12 89 14 581
14 l581 0 -6 -27z"/>
<path d="M730 1343 c0 -21 5 -90 10 -153 5 -63 16 -212 24 -330 9 -118 18
-254 22 -302 l7 -88 45 0 45 0 -7 112 c-6 96 -27 387 -52 716 l-6 82 -44 0
-44 0 0 -37z"/>
<path d="M1070 925 l0 -455 45 0 45 0 0 455 0 455 -45 0 -45 0 0 -455z"/>
<path d="M1416 1368 c-2 -7 -9 -92 -15 -188 -21 -310 -40 -583 -47 -647 l-6
-63 45 0 c53 0 52 -4 61 150 12 188 46 649 52 703 l6 57 -46 0 c-29 0 -48 -5
-50 -12z"/>
</g>
</svg>
