<?xml version="1.0" standalone="no"?>
<!DOCTYPE svg PUBLIC "-//W3C//DTD SVG 20010904//EN"
 "http://www.w3.org/TR/2001/REC-SVG-20010904/DTD/svg10.dtd">
<svg version="1.0" xmlns="http://www.w3.org/2000/svg"
 width="243.000000pt" height="309.000000pt" viewBox="0 0 243.000000 309.000000"
 preserveAspectRatio="xMidYMid meet">

<g transform="translate(0.000000,309.000000) scale(0.100000,-0.100000)"
fill="#000000" stroke="none">
<path d="M876 1978 c-11 -16 -16 -46 -16 -100 l0 -78 -258 0 c-238 0 -260 -1
-275 -18 -14 -15 -17 -40 -17 -133 0 -63 4 -120 9 -128 5 -8 29 -17 53 -20
l43 -6 7 -65 c4 -36 23 -216 43 -400 19 -184 47 -438 60 -565 14 -126 25 -233
25 -237 0 -5 247 -8 549 -8 l549 0 6 42 c5 35 52 479 119 1118 l12 115 35 3
c57 6 60 12 60 148 0 98 -3 126 -16 138 -13 14 -53 16 -280 16 l-264 0 0 90
c0 78 -2 91 -19 100 -12 6 -99 10 -215 10 -190 0 -195 -1 -210 -22z m362 -120
l-3 -53 -142 -3 -143 -3 0 56 0 55 146 0 145 0 -3 -52z m537 -208 l0 -45 -677
-3 -678 -2 0 50 0 50 678 -2 677 -3 0 -45z m-102 -157 c2 -5 -4 -80 -14 -168
-23 -209 -66 -611 -85 -800 -8 -82 -17 -160 -20 -173 l-4 -22 -449 0 -449 0
-6 38 c-4 20 -15 120 -26 222 -58 556 -72 685 -83 788 -7 62 -11 115 -8 117 8
8 1140 5 1144 -2z"/>
<path d="M716 1361 c-4 -5 1 -103 9 -218 8 -114 22 -307 30 -428 9 -121 18
-230 20 -243 5 -19 12 -22 49 -22 l45 0 -5 52 c-6 77 -32 429 -44 603 -5 83
-13 176 -16 208 l-6 57 -38 0 c-22 0 -41 -4 -44 -9z"/>
<path d="M1060 1368 c0 -2 -1 -209 -3 -461 l-2 -457 48 0 47 0 -2 458 -3 457
-42 3 c-24 2 -43 2 -43 0z"/>
<path d="M1406 1362 c-5 -8 -27 -265 -41 -467 -11 -169 -25 -360 -30 -402 l-5
-43 48 0 48 0 12 178 c7 97 21 294 32 437 26 339 28 305 -19 305 -22 0 -42 -4
-45 -8z"/>
</g>
</svg>
