<svg width="81" height="39" viewBox="0 0 81 39" fill="none" xmlns="http://www.w3.org/2000/svg">
<path d="M32.91 25.37V30.18H38.67V31.91H32.91V38H30.77V23.64H39.67V25.37H32.91ZM48.2986 36.21V38H40.0786V23.64H42.2086V36.21H48.2986ZM61.1266 30.82C61.1266 31.8933 60.9532 32.88 60.6066 33.78C60.2666 34.6733 59.7832 35.4467 59.1566 36.1C58.5299 36.7467 57.7799 37.25 56.9066 37.61C56.0332 37.97 55.0632 38.15 53.9966 38.15C52.9366 38.15 51.9666 37.97 51.0866 37.61C50.2132 37.25 49.4632 36.7467 48.8366 36.1C48.2166 35.4467 47.7332 34.6733 47.3866 33.78C47.0399 32.88 46.8666 31.8933 46.8666 30.82C46.8666 29.7533 47.0399 28.77 47.3866 27.87C47.7332 26.97 48.2166 26.1967 48.8366 25.55C49.4632 24.8967 50.2132 24.39 51.0866 24.03C51.9666 23.6633 52.9366 23.48 53.9966 23.48C55.0632 23.48 56.0332 23.6633 56.9066 24.03C57.7799 24.39 58.5299 24.8967 59.1566 25.55C59.7832 26.1967 60.2666 26.97 60.6066 27.87C60.9532 28.77 61.1266 29.7533 61.1266 30.82ZM58.9466 30.82C58.9466 29.9667 58.8299 29.2 58.5966 28.52C58.3632 27.84 58.0299 27.2633 57.5966 26.79C57.1699 26.3167 56.6499 25.9533 56.0366 25.7C55.4299 25.4467 54.7499 25.32 53.9966 25.32C53.2432 25.32 52.5599 25.4467 51.9466 25.7C51.3399 25.9533 50.8199 26.3167 50.3866 26.79C49.9532 27.2633 49.6199 27.84 49.3866 28.52C49.1532 29.2 49.0366 29.9667 49.0366 30.82C49.0366 31.68 49.1532 32.45 49.3866 33.13C49.6199 33.8033 49.9532 34.3767 50.3866 34.85C50.8199 35.3233 51.3399 35.6867 51.9466 35.94C52.5599 36.1867 53.2432 36.31 53.9966 36.31C54.7499 36.31 55.4299 36.1867 56.0366 35.94C56.6499 35.6867 57.1699 35.3233 57.5966 34.85C58.0299 34.3767 58.3632 33.8033 58.5966 33.13C58.8299 32.45 58.9466 31.68 58.9466 30.82ZM80.3169 23.64L75.8369 38H73.9169L70.4169 27.35C70.3369 27.1367 70.2669 26.88 70.2069 26.58C70.1335 26.8867 70.0635 27.1433 69.9969 27.35L66.4569 38H64.5469L60.0669 23.64H61.8469C62.0335 23.64 62.1902 23.6867 62.3169 23.78C62.4435 23.8667 62.5269 23.9867 62.5669 24.14L65.3969 33.75C65.4502 33.9367 65.4969 34.14 65.5369 34.36C65.5835 34.58 65.6302 34.81 65.6769 35.05C65.7235 34.81 65.7702 34.58 65.8169 34.36C65.8702 34.14 65.9302 33.9367 65.9969 33.75L69.2369 24.14C69.2769 24.0067 69.3602 23.89 69.4869 23.79C69.6202 23.69 69.7769 23.64 69.9569 23.64H70.5669C70.7535 23.64 70.9069 23.6867 71.0269 23.78C71.1469 23.8733 71.2335 23.9933 71.2869 24.14L74.5169 33.75C74.6369 34.1167 74.7435 34.5333 74.8369 35C74.9169 34.54 75.0035 34.1233 75.0969 33.75L77.9369 24.14C77.9702 24.0067 78.0535 23.89 78.1869 23.79C78.3202 23.69 78.4769 23.64 78.6569 23.64H80.3169Z" fill="#18202C"/>
<path d="M11.43 22.15C9.81 22.15 8.34 21.85 7.02 21.25C5.7 20.65 4.56 19.84 3.6 18.82C2.66 17.78 1.93 16.62 1.41 15.34C0.91 14.04 0.66 12.7 0.66 11.32C0.66 9.9 0.93 8.55 1.47 7.27C2.01 5.97 2.76 4.82 3.72 3.82C4.7 2.82 5.85 2.03 7.17 1.45C8.51 0.849999 9.97 0.549999 11.55 0.549999C13.17 0.549999 14.64 0.859999 15.96 1.48C17.28 2.1 18.41 2.93 19.35 3.97C20.29 5.01 21.01 6.18 21.51 7.48C22.03 8.76 22.29 10.08 22.29 11.44C22.29 12.84 22.02 14.18 21.48 15.46C20.96 16.74 20.21 17.89 19.23 18.91C18.27 19.91 17.13 20.7 15.81 21.28C14.49 21.86 13.03 22.15 11.43 22.15ZM11.49 16.96C12.33 16.96 13.06 16.8 13.68 16.48C14.3 16.16 14.8 15.73 15.18 15.19C15.58 14.65 15.87 14.05 16.05 13.39C16.25 12.71 16.35 12.02 16.35 11.32C16.35 10.6 16.25 9.91 16.05 9.25C15.85 8.57 15.55 7.97 15.15 7.45C14.75 6.93 14.24 6.52 13.62 6.22C13 5.9 12.28 5.74 11.46 5.74C10.62 5.74 9.89 5.9 9.27 6.22C8.67 6.54 8.17 6.97 7.77 7.51C7.37 8.05 7.07 8.66 6.87 9.34C6.69 10 6.6 10.68 6.6 11.38C6.6 12.1 6.7 12.79 6.9 13.45C7.1 14.11 7.4 14.71 7.8 15.25C8.2 15.77 8.7 16.19 9.3 16.51C9.92 16.81 10.65 16.96 11.49 16.96ZM9.09 13H14.55L22.83 22H17.37L9.09 13ZM22.7295 16.6V6.22H28.4295V15.31C28.4295 15.99 28.5795 16.53 28.8795 16.93C29.1995 17.31 29.6295 17.5 30.1695 17.5C30.4695 17.5 30.7695 17.46 31.0695 17.38C31.3695 17.3 31.6695 17.14 31.9695 16.9C32.2895 16.66 32.5995 16.32 32.8995 15.88V6.22H38.5995V15.7C38.5995 16.24 38.6795 16.62 38.8395 16.84C38.9995 17.04 39.2795 17.16 39.6795 17.2V22C39.1795 22.1 38.7295 22.17 38.3295 22.21C37.9295 22.27 37.5795 22.3 37.2795 22.3C36.3195 22.3 35.5595 22.12 34.9995 21.76C34.4395 21.4 34.0795 20.85 33.9195 20.11L33.7995 19.54C33.0595 20.52 32.1695 21.23 31.1295 21.67C30.1095 22.09 28.9495 22.3 27.6495 22.3C26.0695 22.3 24.8495 21.81 23.9895 20.83C23.1495 19.85 22.7295 18.44 22.7295 16.6ZM40.5103 22V6.22H46.2103V22H40.5103ZM40.5103 4.9V0.0999994H46.2103V4.9H40.5103ZM55.3943 22.3C53.9943 22.3 52.7543 22.08 51.6743 21.64C50.6143 21.2 49.7143 20.6 48.9743 19.84C48.2343 19.06 47.6743 18.18 47.2943 17.2C46.9143 16.22 46.7243 15.19 46.7243 14.11C46.7243 12.67 47.0543 11.33 47.7143 10.09C48.3943 8.83 49.3743 7.82 50.6543 7.06C51.9543 6.3 53.5343 5.92 55.3943 5.92C57.2943 5.92 58.8943 6.32 60.1943 7.12C61.4943 7.92 62.4643 8.95 63.1043 10.21L57.5543 11.89C57.2943 11.51 56.9743 11.22 56.5943 11.02C56.2343 10.82 55.8243 10.72 55.3643 10.72C54.8443 10.72 54.3743 10.86 53.9543 11.14C53.5343 11.4 53.1943 11.78 52.9343 12.28C52.6943 12.78 52.5743 13.39 52.5743 14.11C52.5743 14.81 52.6943 15.42 52.9343 15.94C53.1943 16.44 53.5343 16.83 53.9543 17.11C54.3743 17.37 54.8443 17.5 55.3643 17.5C55.6843 17.5 55.9743 17.46 56.2343 17.38C56.4943 17.28 56.7343 17.14 56.9543 16.96C57.1943 16.78 57.3943 16.57 57.5543 16.33L63.1043 18.01C62.6843 18.85 62.1043 19.59 61.3643 20.23C60.6443 20.87 59.7843 21.38 58.7843 21.76C57.8043 22.12 56.6743 22.3 55.3943 22.3ZM73.8188 22L70.2488 16.24L69.1088 17.5V22H63.4088V0.0999994H69.1088V12.07L73.3088 6.22H79.3088L73.8788 13.12L79.8488 22H73.8188Z" fill="#090F1D"/>
<path fill-rule="evenodd" clip-rule="evenodd" d="M25.6861 23.0154C25.1423 22.9195 24.6236 23.2826 24.5277 23.8265L22 38.1618H27.0771L29.6254 23.71L25.6861 23.0154Z" fill="url(#paint0_linear_138_200)"/>
<path fill-rule="evenodd" clip-rule="evenodd" d="M19.6861 23.0154C19.1423 22.9195 18.6236 23.2826 18.5277 23.8265L16 38.1618H21.0771L23.6254 23.71L19.6861 23.0154Z" fill="url(#paint1_linear_138_200)"/>
<defs>
<linearGradient id="paint0_linear_138_200" x1="22" y1="30.5809" x2="29.6287" y2="30.5975" gradientUnits="userSpaceOnUse">
<stop stop-color="#059669"/>
<stop offset="1" stop-color="#34D399"/>
</linearGradient>
<linearGradient id="paint1_linear_138_200" x1="16" y1="30.5809" x2="23.6287" y2="30.5975" gradientUnits="userSpaceOnUse">
<stop stop-color="#059669"/>
<stop offset="1" stop-color="#34D399"/>
</linearGradient>
</defs>
</svg>
