<svg width="566" height="386" viewBox="0 0 566 386" fill="none" xmlns="http://www.w3.org/2000/svg">
<g filter="url(#filter0_d_614_417)">
<rect x="26" y="26" width="504" height="324" rx="5" fill="white"/>
</g>
<rect x="432" y="100" width="74" height="33" rx="16.5" fill="url(#paint0_linear_614_417)"/>
<mask id="path-3-inside-1_614_417" fill="white">
<path d="M478.675 107.195C478.543 107.093 478.382 107.027 478.211 107.007C478.04 106.986 477.867 107.012 477.711 107.079L459 115.262V116.845L466.859 119.774L471.9 127H473.6L478.97 108.058C479.014 107.903 479.009 107.739 478.957 107.587C478.905 107.434 478.807 107.298 478.675 107.195ZM472.55 125.49L468.217 119.279L474.885 112.475L473.83 111.577L467.11 118.434L460.63 116.02L477.302 108.728L472.55 125.49Z"/>
</mask>
<path d="M478.675 107.195C478.543 107.093 478.382 107.027 478.211 107.007C478.04 106.986 477.867 107.012 477.711 107.079L459 115.262V116.845L466.859 119.774L471.9 127H473.6L478.97 108.058C479.014 107.903 479.009 107.739 478.957 107.587C478.905 107.434 478.807 107.298 478.675 107.195ZM472.55 125.49L468.217 119.279L474.885 112.475L473.83 111.577L467.11 118.434L460.63 116.02L477.302 108.728L472.55 125.49Z" fill="white"/>
<path d="M478.675 107.195L490.362 92.215L490.331 92.1907L490.3 92.1666L478.675 107.195ZM477.711 107.079L470.133 89.6559L470.116 89.6635L470.098 89.6712L477.711 107.079ZM459 115.262L451.387 97.8539L440 102.834V115.262H459ZM459 116.845H440V130.041L452.365 134.649L459 116.845ZM466.859 119.774L482.442 108.903L479.049 104.041L473.494 101.97L466.859 119.774ZM471.9 127L456.317 137.871L461.988 146H471.9V127ZM473.6 127V146H487.962L491.879 132.183L473.6 127ZM478.97 108.058L497.25 113.241L497.257 113.217L497.263 113.193L478.97 108.058ZM472.55 125.49L456.968 136.361L479.898 169.23L490.83 130.672L472.55 125.49ZM468.217 119.279L454.647 105.98L443.622 117.231L452.635 130.15L468.217 119.279ZM474.885 112.475L488.455 125.773L502.724 111.212L487.196 98.0027L474.885 112.475ZM473.83 111.577L486.141 97.1052L472.654 85.6319L460.26 98.2787L473.83 111.577ZM467.11 118.434L460.475 136.238L472.041 140.549L480.68 131.733L467.11 118.434ZM460.63 116.02L453.017 98.6115L409.996 117.426L453.995 133.823L460.63 116.02ZM477.302 108.728L495.582 113.911L506.558 75.1965L469.689 91.3203L477.302 108.728ZM490.3 92.1666C487.375 89.9042 483.959 88.5604 480.475 88.1423L475.947 125.872C472.804 125.494 469.71 124.281 467.05 122.224L490.3 92.1666ZM480.475 88.1423C476.992 87.7244 473.419 88.2269 470.133 89.6559L485.289 124.503C482.315 125.796 479.088 126.249 475.947 125.872L480.475 88.1423ZM470.098 89.6712L451.387 97.8539L466.613 132.67L485.324 124.488L470.098 89.6712ZM440 115.262V116.845H478V115.262H440ZM452.365 134.649L460.224 137.578L473.494 101.97L465.635 99.0415L452.365 134.649ZM451.276 130.645L456.317 137.871L487.483 116.129L482.442 108.903L451.276 130.645ZM471.9 146H473.6V108H471.9V146ZM491.879 132.183L497.25 113.241L460.691 102.875L455.32 121.817L491.879 132.183ZM497.263 113.193C498.351 109.32 498.23 105.219 496.932 101.429L460.982 113.744C459.789 110.26 459.677 106.485 460.678 102.923L497.263 113.193ZM496.932 101.429C495.639 97.6559 493.29 94.4991 490.362 92.215L466.987 122.175C464.324 120.097 462.17 117.212 460.982 113.744L496.932 101.429ZM488.133 114.619L483.8 108.408L452.635 130.15L456.968 136.361L488.133 114.619ZM481.788 132.577L488.455 125.773L461.315 99.1764L454.647 105.98L481.788 132.577ZM487.196 98.0027L486.141 97.1052L461.519 126.049L462.574 126.947L487.196 98.0027ZM460.26 98.2787L453.54 105.136L480.68 131.733L487.4 124.876L460.26 98.2787ZM473.745 100.631L467.265 98.2157L453.995 133.823L460.475 136.238L473.745 100.631ZM468.243 133.428L484.915 126.136L469.689 91.3203L453.017 98.6115L468.243 133.428ZM459.023 103.546L454.271 120.307L490.83 130.672L495.582 113.911L459.023 103.546Z" fill="white" mask="url(#path-3-inside-1_614_417)"/>
<path d="M140.322 54.422H138.936C138.385 54.422 137.979 54.282 137.718 54.002C137.466 53.722 137.34 53.344 137.34 52.868V52.126C136.789 52.0607 136.295 51.902 135.856 51.65C135.417 51.398 135.044 51.062 134.736 50.642C134.428 50.222 134.19 49.718 134.022 49.13C133.854 48.5327 133.77 47.8607 133.77 47.114C133.77 46.2927 133.868 45.5693 134.064 44.944C134.269 44.3093 134.554 43.782 134.918 43.362C135.291 42.9327 135.735 42.6107 136.248 42.396C136.771 42.172 137.349 42.06 137.984 42.06C138.619 42.06 139.193 42.172 139.706 42.396C140.229 42.6107 140.672 42.9327 141.036 43.362C141.409 43.782 141.694 44.3093 141.89 44.944C142.095 45.5693 142.198 46.2927 142.198 47.114C142.198 48.57 141.895 49.7227 141.288 50.572C140.681 51.412 139.86 51.9207 138.824 52.098V53.106H140.322V54.422ZM137.984 50.754C138.357 50.754 138.698 50.6887 139.006 50.558C139.323 50.4273 139.589 50.2407 139.804 49.998C140.028 49.746 140.201 49.4427 140.322 49.088C140.443 48.7333 140.504 48.332 140.504 47.884V46.344C140.504 45.896 140.443 45.4947 140.322 45.14C140.201 44.7853 140.028 44.4867 139.804 44.244C139.589 43.992 139.323 43.8007 139.006 43.67C138.698 43.5393 138.357 43.474 137.984 43.474C137.601 43.474 137.256 43.5393 136.948 43.67C136.64 43.8007 136.374 43.992 136.15 44.244C135.935 44.4867 135.767 44.7853 135.646 45.14C135.525 45.4947 135.464 45.896 135.464 46.344V47.884C135.464 48.332 135.525 48.7333 135.646 49.088C135.767 49.4427 135.935 49.746 136.15 49.998C136.374 50.2407 136.64 50.4273 136.948 50.558C137.256 50.6887 137.601 50.754 137.984 50.754ZM147.349 50.796H147.293C147.227 50.9733 147.139 51.146 147.027 51.314C146.924 51.482 146.789 51.6313 146.621 51.762C146.462 51.8833 146.266 51.9813 146.033 52.056C145.809 52.1307 145.547 52.168 145.249 52.168C144.493 52.168 143.905 51.9253 143.485 51.44C143.074 50.9547 142.869 50.2593 142.869 49.354V44.72H144.395V49.158C144.395 50.2873 144.861 50.852 145.795 50.852C145.991 50.852 146.182 50.8287 146.369 50.782C146.555 50.726 146.719 50.6467 146.859 50.544C147.008 50.4413 147.125 50.3107 147.209 50.152C147.302 49.9933 147.349 49.8067 147.349 49.592V44.72H148.875V52H147.349V50.796ZM150.71 43.418C150.393 43.418 150.159 43.3433 150.01 43.194C149.87 43.0447 149.8 42.8533 149.8 42.62V42.382C149.8 42.1487 149.87 41.9573 150.01 41.808C150.159 41.6587 150.393 41.584 150.71 41.584C151.027 41.584 151.256 41.6587 151.396 41.808C151.536 41.9573 151.606 42.1487 151.606 42.382V42.62C151.606 42.8533 151.536 43.0447 151.396 43.194C151.256 43.3433 151.027 43.418 150.71 43.418ZM149.94 44.72H151.466V52H149.94V44.72ZM155.339 52.168C154.816 52.168 154.35 52.0793 153.939 51.902C153.528 51.7247 153.183 51.4727 152.903 51.146C152.623 50.81 152.408 50.4087 152.259 49.942C152.11 49.466 152.035 48.9387 152.035 48.36C152.035 47.7813 152.11 47.2587 152.259 46.792C152.408 46.316 152.623 45.9147 152.903 45.588C153.183 45.252 153.528 44.9953 153.939 44.818C154.35 44.6407 154.816 44.552 155.339 44.552C156.067 44.552 156.664 44.7153 157.131 45.042C157.598 45.3687 157.938 45.8027 158.153 46.344L156.893 46.932C156.79 46.596 156.608 46.33 156.347 46.134C156.095 45.9287 155.759 45.826 155.339 45.826C154.779 45.826 154.354 46.0033 154.065 46.358C153.785 46.7033 153.645 47.156 153.645 47.716V49.018C153.645 49.578 153.785 50.0353 154.065 50.39C154.354 50.7353 154.779 50.908 155.339 50.908C155.787 50.908 156.142 50.8007 156.403 50.586C156.674 50.362 156.888 50.068 157.047 49.704L158.209 50.32C157.966 50.9173 157.602 51.3747 157.117 51.692C156.632 52.0093 156.039 52.168 155.339 52.168ZM158.542 41.64H160.068V47.996H160.138L161.146 46.694L162.896 44.72H164.674L162.126 47.534L164.982 52H163.162L161.076 48.528L160.068 49.62V52H158.542V41.64ZM165.19 52V42.228H171.294V43.628H166.772V46.344H170.79V47.744H166.772V52H165.19ZM173.496 52C172.974 52 172.582 51.8693 172.32 51.608C172.068 51.3373 171.942 50.964 171.942 50.488V41.64H173.468V50.754H174.476V52H173.496ZM177.67 52.168C177.167 52.168 176.705 52.0793 176.285 51.902C175.874 51.7247 175.524 51.4727 175.234 51.146C174.945 50.81 174.721 50.4087 174.562 49.942C174.404 49.466 174.324 48.9387 174.324 48.36C174.324 47.7813 174.404 47.2587 174.562 46.792C174.721 46.316 174.945 45.9147 175.234 45.588C175.524 45.252 175.874 44.9953 176.285 44.818C176.705 44.6407 177.167 44.552 177.67 44.552C178.175 44.552 178.632 44.6407 179.043 44.818C179.463 44.9953 179.817 45.252 180.107 45.588C180.396 45.9147 180.62 46.316 180.778 46.792C180.937 47.2587 181.017 47.7813 181.017 48.36C181.017 48.9387 180.937 49.466 180.778 49.942C180.62 50.4087 180.396 50.81 180.107 51.146C179.817 51.4727 179.463 51.7247 179.043 51.902C178.632 52.0793 178.175 52.168 177.67 52.168ZM177.67 50.908C178.193 50.908 178.613 50.7493 178.93 50.432C179.248 50.1053 179.407 49.62 179.407 48.976V47.744C179.407 47.1 179.248 46.6193 178.93 46.302C178.613 45.9753 178.193 45.812 177.67 45.812C177.148 45.812 176.728 45.9753 176.41 46.302C176.093 46.6193 175.934 47.1 175.934 47.744V48.976C175.934 49.62 176.093 50.1053 176.41 50.432C176.728 50.7493 177.148 50.908 177.67 50.908ZM180.773 44.72H182.257L182.999 47.772L183.657 50.53H183.699L184.455 47.772L185.337 44.72H186.709L187.605 47.772L188.375 50.53H188.417L189.061 47.772L189.817 44.72H191.231L189.271 52H187.549L186.597 48.682L186.009 46.638H185.981L185.407 48.682L184.441 52H182.761L180.773 44.72Z" fill="#CBD5E1"/>
<rect x="26" y="67" width="504" height="1" fill="#E2E8F0"/>
<circle cx="47" cy="47" r="6" fill="#FF5F56"/>
<circle cx="67" cy="47" r="6" fill="#FFBD2E"/>
<circle cx="87" cy="47" r="6" fill="#27C93F"/>
<rect x="110" y="26" width="1" height="42" fill="#E2E8F0"/>
<rect x="274" y="26" width="1" height="42" fill="#E2E8F0"/>
<path d="M455.549 160.679C455.263 160.351 454.898 160.024 454.489 159.737C454.079 159.45 453.647 159.22 453.202 159.047C453.895 157.701 454.093 156.253 453.903 154.86C453.621 153.226 452.712 151.695 451.245 150.668C451.178 150.621 451.111 150.574 451.045 150.534C451.045 150.534 451.03 150.523 451.019 150.515C450.199 149.942 449.303 149.558 448.383 149.358C448.629 148.515 448.652 147.682 448.513 146.874C448.193 145.263 447.266 143.765 445.81 142.746C445.676 142.652 445.54 142.562 445.402 142.482L445.42 142.495C447.672 141.775 449.746 140.319 451.227 138.204C454.827 133.062 453.578 125.978 448.436 122.377C443.294 118.777 436.21 120.026 432.61 125.168C430.49 128.195 430.053 131.895 431.099 135.164L424.176 145.098C422.074 143.71 419.644 143.218 417.329 143.528C413.6 144.352 411.097 147.927 407.969 152.395L406.092 155.076C403.273 159.355 402.695 164.467 404.106 169.022L404.51 171.281C405.816 179.243 409.07 183.63 418.9 190.513C429.624 198.022 438.811 195.521 447.805 182.675L454.349 173.329C456.357 170.462 459.06 164.858 455.549 160.679ZM450.837 170.42L444.084 180.064C435.298 192.612 428.696 191.818 421.51 186.786C411.829 180.007 409.867 176.469 408.967 170.623L408.591 168.307C407.365 164.851 407.708 160.946 409.805 157.698C410.496 156.711 411.121 155.817 411.721 154.961C412.062 154.212 412.522 153.397 413.067 152.619C414.47 150.615 416.266 149.049 418.279 147.956C419.316 147.949 420.479 148.231 421.504 148.882L419.69 151.496L420.264 150.677L415.087 155.376C414.993 155.432 414.902 155.513 414.832 155.614C414.563 155.997 414.656 156.522 415.04 156.791C415.319 156.987 415.678 156.988 415.959 156.825L422.84 154.923C422.888 154.878 422.934 154.828 422.976 154.768C423.018 154.709 423.049 154.648 423.077 154.584L437.701 133.699C437.732 133.655 437.765 133.6 437.799 133.551C438.466 132.598 439.391 131.936 440.413 131.586C441.002 131.466 441.655 131.579 442.198 131.96C442.236 131.986 442.273 132.012 442.307 132.042C443.089 132.589 443.275 133.663 442.728 134.445L442.699 134.486L432.612 148.892C431.893 149.919 432.143 151.337 433.17 152.057C434.198 152.776 435.616 152.526 436.336 151.499L439.777 146.584C440.469 145.675 441.761 145.47 442.703 146.13C442.744 146.159 442.781 146.185 442.819 146.217C442.918 146.258 443.03 146.32 443.134 146.393C443.998 146.998 444.208 148.188 443.603 149.052C443.577 149.089 443.551 149.127 443.524 149.157L440.059 154.106C439.339 155.134 439.589 156.552 440.617 157.271C441.645 157.991 443.063 157.741 443.782 156.713L445.451 154.33C446.146 153.607 447.269 153.478 448.106 154.064C448.177 154.114 448.245 154.167 448.308 154.228C448.362 154.254 448.428 154.295 448.491 154.339C448.908 154.631 449.176 155.057 449.28 155.519C449.316 156.26 449.109 157.03 448.643 157.697L448.598 157.76L446.463 160.81C445.817 161.756 445.985 163.022 446.816 163.776C446.887 163.842 446.966 163.903 447.052 163.963C447.949 164.591 449.13 164.497 449.915 163.804C450.304 163.455 450.752 163.258 451.223 163.205C451.385 163.235 451.55 163.3 451.699 163.405C451.848 163.509 451.966 163.642 452.053 163.786C452.819 165.704 452.634 167.933 451.375 169.731C451.226 169.944 451.069 170.144 450.897 170.335L450.919 170.311L450.837 170.42Z" fill="#444444"/>
<rect x="50" y="100" width="267" height="23" rx="4" fill="#94A3B8"/>
<rect x="50" y="130" width="182.422" height="23" rx="4" fill="#CBD5E1"/>
<rect x="50" y="192" width="267" height="23" rx="4" fill="#94A3B8"/>
<rect x="50" y="222" width="221" height="88" rx="4" fill="#CBD5E1"/>
<defs>
<filter id="filter0_d_614_417" x="0" y="0" width="566" height="386" filterUnits="userSpaceOnUse" color-interpolation-filters="sRGB">
<feFlood flood-opacity="0" result="BackgroundImageFix"/>
<feColorMatrix in="SourceAlpha" type="matrix" values="0 0 0 0 0 0 0 0 0 0 0 0 0 0 0 0 0 0 127 0" result="hardAlpha"/>
<feOffset dx="5" dy="5"/>
<feGaussianBlur stdDeviation="15.5"/>
<feComposite in2="hardAlpha" operator="out"/>
<feColorMatrix type="matrix" values="0 0 0 0 0 0 0 0 0 0 0 0 0 0 0 0 0 0 0.1 0"/>
<feBlend mode="normal" in2="BackgroundImageFix" result="effect1_dropShadow_614_417"/>
<feBlend mode="normal" in="SourceGraphic" in2="effect1_dropShadow_614_417" result="shape"/>
</filter>
<linearGradient id="paint0_linear_614_417" x1="432" y1="116.5" x2="506.025" y2="117.22" gradientUnits="userSpaceOnUse">
<stop stop-color="#059669"/>
<stop offset="1" stop-color="#34D399"/>
</linearGradient>
</defs>
</svg>
